<svg xmlns="http://www.w3.org/2000/svg" width="920" height="620" viewBox="0 0 920 620">
  <defs>
    <linearGradient id="bg" x1="0" y1="0" x2="1" y2="1">
      <stop offset="0%" stop-color="#eaf4ef"/>
      <stop offset="50%" stop-color="#d9ebdf"/>
      <stop offset="100%" stop-color="#fbfaf5"/>
    </linearGradient>
    <radialGradient id="sun" cx="50%" cy="40%" r="50%">
      <stop offset="0%" stop-color="#ffffff" stop-opacity="0.95"/>
      <stop offset="100%" stop-color="#b8d8c2" stop-opacity="0.1"/>
    </radialGradient>
  </defs>
  <rect width="920" height="620" rx="46" fill="url(#bg)"/>
  <circle cx="685" cy="150" r="94" fill="url(#sun)"/>
  <path d="M160 425 C260 320, 385 320, 480 425 C565 520, 700 510, 780 420" fill="none" stroke="#2e5e4e" stroke-width="18" stroke-linecap="round" opacity="0.30"/>
  <path d="M250 390 C330 310, 445 305, 530 390 C590 450, 675 460, 735 395" fill="none" stroke="#4d7f6a" stroke-width="12" stroke-linecap="round" opacity="0.45"/>
  <circle cx="460" cy="235" r="42" fill="#2e5e4e" opacity="0.88"/>
  <path d="M400 332 C430 270, 490 270, 520 332" fill="none" stroke="#2e5e4e" stroke-width="18" stroke-linecap="round"/>
  <path d="M365 360 C430 405, 495 405, 560 360" fill="none" stroke="#2e5e4e" stroke-width="16" stroke-linecap="round"/>
  <g opacity="0.55">
    <path d="M195 205 C235 155, 275 150, 305 190 C260 195, 230 215, 205 245 Z" fill="#6b8f71"/>
    <path d="M680 300 C710 255, 755 245, 790 275 C750 285, 720 305, 695 335 Z" fill="#4d7f6a"/>
  </g>
  <text x="460" y="535" text-anchor="middle" font-family="Arial, sans-serif" font-size="34" font-weight="700" fill="#173d33">Bienestar integral</text>
</svg>
